<svg xmlns="http://www.w3.org/2000/svg" viewBox="0 0 457.67 96.42"><defs><style>.cls-1{isolation:isolate;}.cls-2{fill:#fcc030;}</style></defs><g id="Layer_2" data-name="Layer 2"><g id="Layer_1-2" data-name="Layer 1"><g id="Group_33" data-name="Group 33"><g id="Group_33-2" data-name="Group 33"><g id="Header"><g id="EXIT19" class="cls-1"><path class="cls-2" d="M55.88,76V96.42H0V7.52H54.74V28.1h-33V41.81h29V61.24H21.72V76Z"/><path class="cls-2" d="M133.86,96.42,116.58,68.61,99.44,96.42H74.93L103.5,50.7,77.09,7.52H101.6l15,25.53L131.7,7.52h24.51L129.79,50.7l28.58,45.72Z"/><path class="cls-2" d="M201.67,7.52v88.9H180V7.52Z"/><path class="cls-2" d="M289.17,28.1H268.35V96.42H246.63V28.1H225.8V7.52h63.37Z"/><path class="cls-2" d="M352.55,7.52v88.9H330.83V32.16l-13.59,9.15-9-14.74,28.32-19Z"/><path class="cls-2" d="M380.49,37.24C380.49,19.21,393.69,6,414,6,434,6,447.54,18.7,447.54,37.24c0,12.32-6.6,21.34-9.91,26.16l-22.47,33H391.79L413,67.34C393.57,67,380.49,55.4,380.49,37.24Zm21.46,0c0,6.86,4.82,12.07,12.06,12.07a11.91,11.91,0,0,0,12.07-12.07,12.07,12.07,0,0,0-24.13,0Z"/></g></g><g id="Header-2"><g id="EXIT19-2" class="cls-1"><path class="cls-2" d="M66.13,90.42H9.87V1.52H65V23H32.48V35.43H61.05V55.75H32.48V69.09H66.13ZM11,89.41H65V70.23H31.34V54.61H59.91v-18H31.34V21.84H63.85V2.67H11Z"/><path class="cls-2" d="M168.75,90.42H143.22L126.58,63.37,109.82,90.42H84.29L113,44.83,86.58,1.52H112l14.6,24.77L141.06,1.52h25.53L140.17,44.7Zm-24.89-1h22.86L138.9,44.7l25.66-42H141.7L126.58,28.45,111.34,2.67H88.49l25.78,42.16L86.33,89.41h22.86l17.39-28.07Z"/><path class="cls-2" d="M212.18,90.42h-22.6V1.52h22.6Zm-21.46-1h20.45V2.67H190.72Z"/><path class="cls-2" d="M278.85,90.42h-22.6V23H235.67V1.52H299.3V23H278.85Zm-21.59-1h20.45V21.84h20.57V2.67H236.82V21.84h20.44Z"/><path class="cls-2" d="M362.93,90.42H340.32v-63l-13.08,8.76L317.71,20.7,346.29,1.52h16.64Zm-21.47-1h20.32V2.67H346.54l-27.3,18.41,8.25,13.59,14-9.27Z"/><path class="cls-2" d="M425.41,90.42H400.9l21-28.7c-19.17-.89-31.49-12.7-31.49-30.35C390.36,13,404.2,0,424,0s33.66,13,33.66,31.37c0,11.68-5.84,20.19-9.4,25.27l-.51.89Zm-22.35-1h21.72L447.38,56c3.43-5,9.14-13.21,9.14-24.64,0-17.78-13.46-30.23-32.51-30.23s-32.64,12.45-32.64,30.23c0,17.4,12.45,28.83,31.5,29.21H424Zm8.51-58a12.45,12.45,0,1,1,24.89,0A12.23,12.23,0,0,1,424,43.81C416.65,43.81,411.57,38.73,411.57,31.37Zm1,0c0,6.73,4.7,11.43,11.43,11.43a11.2,11.2,0,0,0,11.31-11.43,11.37,11.37,0,0,0-22.74,0Z"/></g></g></g></g></g></g></svg>