<svg xmlns="http://www.w3.org/2000/svg" viewBox="0 0 247 149"><defs><style>.cls-1{fill:#fcc030;}</style></defs><g id="Layer_2" data-name="Layer 2"><g id="Layer_1-2" data-name="Layer 1"><circle class="cls-1" cx="8" cy="2.5" r="2.5"/><circle class="cls-1" cx="19" cy="2.5" r="2.5"/><circle class="cls-1" cx="30" cy="2.5" r="2.5"/><circle class="cls-1" cx="41" cy="2.5" r="2.5"/><circle class="cls-1" cx="52" cy="2.5" r="2.5"/><circle class="cls-1" cx="63" cy="2.5" r="2.5"/><circle class="cls-1" cx="74" cy="2.5" r="2.5"/><circle class="cls-1" cx="85" cy="2.5" r="2.5"/><circle class="cls-1" cx="96" cy="2.5" r="2.5"/><circle class="cls-1" cx="107" cy="2.5" r="2.5"/><circle class="cls-1" cx="118" cy="2.5" r="2.5"/><circle class="cls-1" cx="129" cy="2.5" r="2.5"/><circle class="cls-1" cx="140" cy="2.5" r="2.5"/><circle class="cls-1" cx="151" cy="2.5" r="2.5"/><circle class="cls-1" cx="162" cy="2.5" r="2.5"/><circle class="cls-1" cx="173" cy="2.5" r="2.5"/><circle class="cls-1" cx="184" cy="2.5" r="2.5"/><circle class="cls-1" cx="195" cy="2.5" r="2.5"/><circle class="cls-1" cx="206" cy="2.5" r="2.5"/><circle class="cls-1" cx="217" cy="2.5" r="2.5"/><circle class="cls-1" cx="228" cy="2.5" r="2.5"/><circle class="cls-1" cx="239" cy="2.5" r="2.5"/><circle class="cls-1" cx="2.5" cy="8.5" r="2.5"/><circle class="cls-1" cx="13.5" cy="8.5" r="2.5"/><circle class="cls-1" cx="24.5" cy="8.5" r="2.5"/><circle class="cls-1" cx="35.5" cy="8.5" r="2.5"/><circle class="cls-1" cx="46.5" cy="8.5" r="2.5"/><circle class="cls-1" cx="57.5" cy="8.5" r="2.5"/><circle class="cls-1" cx="68.5" cy="8.5" r="2.5"/><circle class="cls-1" cx="79.5" cy="8.5" r="2.5"/><circle class="cls-1" cx="90.5" cy="8.5" r="2.5"/><circle class="cls-1" cx="101.5" cy="8.5" r="2.5"/><circle class="cls-1" cx="112.5" cy="8.5" r="2.5"/><circle class="cls-1" cx="123.5" cy="8.5" r="2.5"/><circle class="cls-1" cx="134.5" cy="8.5" r="2.5"/><circle class="cls-1" cx="145.5" cy="8.5" r="2.5"/><circle class="cls-1" cx="156.5" cy="8.5" r="2.5"/><circle class="cls-1" cx="167.5" cy="8.5" r="2.5"/><circle class="cls-1" cx="178.5" cy="8.5" r="2.5"/><circle class="cls-1" cx="189.5" cy="8.5" r="2.5"/><circle class="cls-1" cx="200.5" cy="8.5" r="2.5"/><circle class="cls-1" cx="211.5" cy="8.5" r="2.5"/><circle class="cls-1" cx="222.5" cy="8.5" r="2.5"/><circle class="cls-1" cx="233.5" cy="8.5" r="2.5"/><circle class="cls-1" cx="244.5" cy="8.5" r="2.5"/><circle class="cls-1" cx="8" cy="14.5" r="2.5"/><circle class="cls-1" cx="19" cy="14.5" r="2.5"/><circle class="cls-1" cx="30" cy="14.5" r="2.5"/><circle class="cls-1" cx="41" cy="14.5" r="2.5"/><circle class="cls-1" cx="52" cy="14.5" r="2.5"/><circle class="cls-1" cx="63" cy="14.5" r="2.5"/><circle class="cls-1" cx="74" cy="14.5" r="2.5"/><circle class="cls-1" cx="85" cy="14.5" r="2.5"/><circle class="cls-1" cx="96" cy="14.5" r="2.5"/><circle class="cls-1" cx="107" cy="14.5" r="2.5"/><circle class="cls-1" cx="118" cy="14.5" r="2.5"/><circle class="cls-1" cx="129" cy="14.5" r="2.5"/><circle class="cls-1" cx="140" cy="14.5" r="2.5"/><circle class="cls-1" cx="151" cy="14.5" r="2.5"/><circle class="cls-1" cx="162" cy="14.5" r="2.5"/><circle class="cls-1" cx="173" cy="14.5" r="2.5"/><circle class="cls-1" cx="184" cy="14.5" r="2.5"/><circle class="cls-1" cx="195" cy="14.5" r="2.5"/><circle class="cls-1" cx="206" cy="14.5" r="2.5"/><circle class="cls-1" cx="217" cy="14.5" r="2.5"/><circle class="cls-1" cx="228" cy="14.5" r="2.5"/><circle class="cls-1" cx="239" cy="14.5" r="2.5"/><circle class="cls-1" cx="2.5" cy="20.5" r="2.5"/><circle class="cls-1" cx="13.5" cy="20.5" r="2.5"/><circle class="cls-1" cx="24.5" cy="20.5" r="2.5"/><circle class="cls-1" cx="35.5" cy="20.5" r="2.5"/><circle class="cls-1" cx="46.5" cy="20.5" r="2.5"/><circle class="cls-1" cx="57.5" cy="20.5" r="2.5"/><circle class="cls-1" cx="68.5" cy="20.5" r="2.5"/><circle class="cls-1" cx="79.5" cy="20.5" r="2.5"/><circle class="cls-1" cx="90.5" cy="20.5" r="2.5"/><circle class="cls-1" cx="101.5" cy="20.5" r="2.5"/><circle class="cls-1" cx="112.5" cy="20.5" r="2.5"/><circle class="cls-1" cx="123.5" cy="20.5" r="2.5"/><circle class="cls-1" cx="134.5" cy="20.5" r="2.5"/><circle class="cls-1" cx="145.5" cy="20.5" r="2.5"/><circle class="cls-1" cx="156.5" cy="20.5" r="2.5"/><circle class="cls-1" cx="167.5" cy="20.5" r="2.5"/><circle class="cls-1" cx="178.5" cy="20.5" r="2.5"/><circle class="cls-1" cx="189.5" cy="20.5" r="2.5"/><circle class="cls-1" cx="200.5" cy="20.5" r="2.5"/><circle class="cls-1" cx="211.5" cy="20.5" r="2.5"/><circle class="cls-1" cx="222.5" cy="20.5" r="2.5"/><circle class="cls-1" cx="233.5" cy="20.5" r="2.5"/><circle class="cls-1" cx="244.5" cy="20.5" r="2.5"/><circle class="cls-1" cx="8" cy="26.5" r="2.5"/><circle class="cls-1" cx="19" cy="26.5" r="2.5"/><circle class="cls-1" cx="30" cy="26.5" r="2.5"/><circle class="cls-1" cx="41" cy="26.5" r="2.5"/><circle class="cls-1" cx="52" cy="26.5" r="2.5"/><circle class="cls-1" cx="63" cy="26.5" r="2.5"/><circle class="cls-1" cx="74" cy="26.5" r="2.5"/><circle class="cls-1" cx="85" cy="26.5" r="2.5"/><circle class="cls-1" cx="96" cy="26.5" r="2.5"/><circle class="cls-1" cx="107" cy="26.5" r="2.5"/><circle class="cls-1" cx="118" cy="26.5" r="2.5"/><circle class="cls-1" cx="129" cy="26.5" r="2.5"/><circle class="cls-1" cx="140" cy="26.5" r="2.5"/><circle class="cls-1" cx="151" cy="26.5" r="2.5"/><circle class="cls-1" cx="162" cy="26.5" r="2.5"/><circle class="cls-1" cx="173" cy="26.5" r="2.5"/><circle class="cls-1" cx="184" cy="26.5" r="2.5"/><circle class="cls-1" cx="195" cy="26.5" r="2.5"/><circle class="cls-1" cx="206" cy="26.5" r="2.5"/><circle class="cls-1" cx="217" cy="26.5" r="2.5"/><circle class="cls-1" cx="228" cy="26.5" r="2.5"/><circle class="cls-1" cx="239" cy="26.5" r="2.5"/><circle class="cls-1" cx="2.5" cy="32.5" r="2.5"/><circle class="cls-1" cx="13.5" cy="32.5" r="2.5"/><circle class="cls-1" cx="24.5" cy="32.5" r="2.5"/><circle class="cls-1" cx="35.5" cy="32.5" r="2.5"/><circle class="cls-1" cx="46.5" cy="32.5" r="2.5"/><circle class="cls-1" cx="57.5" cy="32.5" r="2.5"/><circle class="cls-1" cx="68.5" cy="32.5" r="2.5"/><circle class="cls-1" cx="79.5" cy="32.5" r="2.5"/><circle class="cls-1" cx="90.5" cy="32.5" r="2.5"/><circle class="cls-1" cx="101.5" cy="32.5" r="2.5"/><circle class="cls-1" cx="112.5" cy="32.5" r="2.5"/><circle class="cls-1" cx="123.5" cy="32.5" r="2.5"/><circle class="cls-1" cx="134.5" cy="32.5" r="2.5"/><circle class="cls-1" cx="145.5" cy="32.5" r="2.5"/><circle class="cls-1" cx="156.5" cy="32.5" r="2.5"/><circle class="cls-1" cx="167.5" cy="32.5" r="2.5"/><circle class="cls-1" cx="178.5" cy="32.5" r="2.5"/><circle class="cls-1" cx="189.5" cy="32.5" r="2.5"/><circle class="cls-1" cx="200.5" cy="32.5" r="2.5"/><circle class="cls-1" cx="211.5" cy="32.5" r="2.5"/><circle class="cls-1" cx="222.5" cy="32.5" r="2.5"/><circle class="cls-1" cx="233.5" cy="32.5" r="2.5"/><circle class="cls-1" cx="244.5" cy="32.5" r="2.5"/><circle class="cls-1" cx="8" cy="38.5" r="2.5"/><circle class="cls-1" cx="19" cy="38.5" r="2.5"/><circle class="cls-1" cx="30" cy="38.5" r="2.5"/><circle class="cls-1" cx="41" cy="38.5" r="2.5"/><circle class="cls-1" cx="52" cy="38.5" r="2.5"/><circle class="cls-1" cx="63" cy="38.5" r="2.5"/><circle class="cls-1" cx="74" cy="38.5" r="2.5"/><circle class="cls-1" cx="85" cy="38.5" r="2.5"/><circle class="cls-1" cx="96" cy="38.5" r="2.5"/><circle class="cls-1" cx="107" cy="38.5" r="2.5"/><circle class="cls-1" cx="118" cy="38.5" r="2.5"/><circle class="cls-1" cx="129" cy="38.5" r="2.5"/><circle class="cls-1" cx="140" cy="38.5" r="2.5"/><circle class="cls-1" cx="151" cy="38.5" r="2.5"/><circle class="cls-1" cx="162" cy="38.5" r="2.5"/><circle class="cls-1" cx="173" cy="38.5" r="2.5"/><circle class="cls-1" cx="184" cy="38.5" r="2.5"/><circle class="cls-1" cx="195" cy="38.5" r="2.5"/><circle class="cls-1" cx="206" cy="38.5" r="2.5"/><circle class="cls-1" cx="217" cy="38.5" r="2.5"/><circle class="cls-1" cx="228" cy="38.5" r="2.5"/><circle class="cls-1" cx="239" cy="38.5" r="2.5"/><circle class="cls-1" cx="2.5" cy="44.5" r="2.5"/><circle class="cls-1" cx="13.5" cy="44.5" r="2.5"/><circle class="cls-1" cx="24.5" cy="44.5" r="2.5"/><circle class="cls-1" cx="35.5" cy="44.5" r="2.5"/><circle class="cls-1" cx="46.5" cy="44.5" r="2.5"/><circle class="cls-1" cx="57.5" cy="44.5" r="2.5"/><circle class="cls-1" cx="68.5" cy="44.5" r="2.5"/><circle class="cls-1" cx="79.5" cy="44.5" r="2.5"/><circle class="cls-1" cx="90.5" cy="44.5" r="2.5"/><circle class="cls-1" cx="101.5" cy="44.5" r="2.5"/><circle class="cls-1" cx="112.5" cy="44.5" r="2.5"/><circle class="cls-1" cx="123.5" cy="44.5" r="2.5"/><circle class="cls-1" cx="134.5" cy="44.5" r="2.5"/><circle class="cls-1" cx="145.5" cy="44.5" r="2.5"/><circle class="cls-1" cx="156.5" cy="44.5" r="2.5"/><circle class="cls-1" cx="167.5" cy="44.5" r="2.5"/><circle class="cls-1" cx="178.5" cy="44.5" r="2.5"/><circle class="cls-1" cx="189.5" cy="44.5" r="2.5"/><circle class="cls-1" cx="200.5" cy="44.5" r="2.5"/><circle class="cls-1" cx="211.5" cy="44.5" r="2.5"/><circle class="cls-1" cx="222.5" cy="44.5" r="2.5"/><circle class="cls-1" cx="233.5" cy="44.5" r="2.5"/><circle class="cls-1" cx="244.5" cy="44.5" r="2.5"/><circle class="cls-1" cx="8" cy="50.5" r="2.5"/><circle class="cls-1" cx="19" cy="50.5" r="2.5"/><circle class="cls-1" cx="30" cy="50.5" r="2.5"/><circle class="cls-1" cx="41" cy="50.5" r="2.5"/><circle class="cls-1" cx="52" cy="50.5" r="2.5"/><circle class="cls-1" cx="63" cy="50.5" r="2.5"/><circle class="cls-1" cx="74" cy="50.5" r="2.5"/><circle class="cls-1" cx="85" cy="50.5" r="2.5"/><circle class="cls-1" cx="96" cy="50.5" r="2.5"/><circle class="cls-1" cx="107" cy="50.5" r="2.5"/><circle class="cls-1" cx="118" cy="50.5" r="2.5"/><circle class="cls-1" cx="129" cy="50.5" r="2.5"/><circle class="cls-1" cx="140" cy="50.5" r="2.5"/><circle class="cls-1" cx="151" cy="50.5" r="2.5"/><circle class="cls-1" cx="162" cy="50.5" r="2.5"/><circle class="cls-1" cx="173" cy="50.5" r="2.5"/><circle class="cls-1" cx="184" cy="50.5" r="2.5"/><circle class="cls-1" cx="195" cy="50.5" r="2.5"/><circle class="cls-1" cx="206" cy="50.5" r="2.5"/><circle class="cls-1" cx="217" cy="50.5" r="2.5"/><circle class="cls-1" cx="228" cy="50.5" r="2.5"/><circle class="cls-1" cx="239" cy="50.5" r="2.5"/><circle class="cls-1" cx="2.5" cy="56.5" r="2.5"/><circle class="cls-1" cx="13.5" cy="56.5" r="2.5"/><circle class="cls-1" cx="24.5" cy="56.5" r="2.5"/><circle class="cls-1" cx="35.5" cy="56.5" r="2.5"/><circle class="cls-1" cx="46.5" cy="56.5" r="2.5"/><circle class="cls-1" cx="57.5" cy="56.5" r="2.5"/><circle class="cls-1" cx="68.5" cy="56.5" r="2.5"/><circle class="cls-1" cx="79.5" cy="56.5" r="2.5"/><circle class="cls-1" cx="90.5" cy="56.5" r="2.5"/><circle class="cls-1" cx="101.5" cy="56.5" r="2.5"/><circle class="cls-1" cx="112.5" cy="56.5" r="2.5"/><circle class="cls-1" cx="123.5" cy="56.5" r="2.5"/><circle class="cls-1" cx="134.5" cy="56.5" r="2.5"/><circle class="cls-1" cx="145.5" cy="56.5" r="2.5"/><circle class="cls-1" cx="156.5" cy="56.5" r="2.5"/><circle class="cls-1" cx="167.5" cy="56.5" r="2.5"/><circle class="cls-1" cx="178.5" cy="56.5" r="2.5"/><circle class="cls-1" cx="189.5" cy="56.5" r="2.5"/><circle class="cls-1" cx="200.5" cy="56.5" r="2.5"/><circle class="cls-1" cx="211.5" cy="56.5" r="2.5"/><circle class="cls-1" cx="222.5" cy="56.5" r="2.5"/><circle class="cls-1" cx="233.5" cy="56.5" r="2.5"/><circle class="cls-1" cx="244.5" cy="56.5" r="2.5"/><circle class="cls-1" cx="8" cy="62.5" r="2.5"/><circle class="cls-1" cx="19" cy="62.5" r="2.5"/><circle class="cls-1" cx="30" cy="62.5" r="2.5"/><circle class="cls-1" cx="41" cy="62.5" r="2.5"/><circle class="cls-1" cx="52" cy="62.5" r="2.5"/><circle class="cls-1" cx="63" cy="62.5" r="2.5"/><circle class="cls-1" cx="74" cy="62.5" r="2.5"/><circle class="cls-1" cx="85" cy="62.5" r="2.5"/><circle class="cls-1" cx="96" cy="62.5" r="2.5"/><circle class="cls-1" cx="107" cy="62.5" r="2.5"/><circle class="cls-1" cx="118" cy="62.5" r="2.5"/><circle class="cls-1" cx="129" cy="62.5" r="2.5"/><circle class="cls-1" cx="140" cy="62.5" r="2.5"/><circle class="cls-1" cx="151" cy="62.5" r="2.5"/><circle class="cls-1" cx="162" cy="62.5" r="2.5"/><circle class="cls-1" cx="173" cy="62.5" r="2.5"/><circle class="cls-1" cx="184" cy="62.5" r="2.5"/><circle class="cls-1" cx="195" cy="62.5" r="2.5"/><circle class="cls-1" cx="206" cy="62.5" r="2.5"/><circle class="cls-1" cx="217" cy="62.5" r="2.5"/><circle class="cls-1" cx="228" cy="62.5" r="2.5"/><circle class="cls-1" cx="239" cy="62.5" r="2.5"/><circle class="cls-1" cx="2.5" cy="68.5" r="2.5"/><circle class="cls-1" cx="13.5" cy="68.5" r="2.5"/><circle class="cls-1" cx="24.5" cy="68.5" r="2.5"/><circle class="cls-1" cx="35.5" cy="68.5" r="2.5"/><circle class="cls-1" cx="46.5" cy="68.5" r="2.5"/><circle class="cls-1" cx="57.5" cy="68.5" r="2.5"/><circle class="cls-1" cx="68.5" cy="68.5" r="2.5"/><circle class="cls-1" cx="79.5" cy="68.5" r="2.5"/><circle class="cls-1" cx="90.5" cy="68.5" r="2.5"/><circle class="cls-1" cx="101.5" cy="68.5" r="2.5"/><circle class="cls-1" cx="112.5" cy="68.5" r="2.5"/><circle class="cls-1" cx="123.5" cy="68.5" r="2.5"/><circle class="cls-1" cx="134.5" cy="68.5" r="2.5"/><circle class="cls-1" cx="145.5" cy="68.5" r="2.5"/><circle class="cls-1" cx="156.5" cy="68.5" r="2.5"/><circle class="cls-1" cx="167.5" cy="68.5" r="2.5"/><circle class="cls-1" cx="178.5" cy="68.5" r="2.5"/><circle class="cls-1" cx="189.5" cy="68.5" r="2.5"/><circle class="cls-1" cx="200.5" cy="68.5" r="2.5"/><circle class="cls-1" cx="211.5" cy="68.5" r="2.5"/><circle class="cls-1" cx="222.5" cy="68.5" r="2.5"/><circle class="cls-1" cx="233.5" cy="68.5" r="2.5"/><circle class="cls-1" cx="244.5" cy="68.5" r="2.5"/><circle class="cls-1" cx="8" cy="74.5" r="2.5"/><circle class="cls-1" cx="19" cy="74.5" r="2.5"/><circle class="cls-1" cx="30" cy="74.5" r="2.5"/><circle class="cls-1" cx="41" cy="74.5" r="2.5"/><circle class="cls-1" cx="52" cy="74.5" r="2.5"/><circle class="cls-1" cx="63" cy="74.5" r="2.5"/><circle class="cls-1" cx="74" cy="74.5" r="2.5"/><circle class="cls-1" cx="85" cy="74.5" r="2.5"/><circle class="cls-1" cx="96" cy="74.5" r="2.5"/><circle class="cls-1" cx="107" cy="74.5" r="2.5"/><circle class="cls-1" cx="118" cy="74.5" r="2.5"/><circle class="cls-1" cx="129" cy="74.5" r="2.5"/><circle class="cls-1" cx="140" cy="74.5" r="2.5"/><circle class="cls-1" cx="151" cy="74.5" r="2.5"/><circle class="cls-1" cx="162" cy="74.5" r="2.5"/><circle class="cls-1" cx="173" cy="74.5" r="2.5"/><circle class="cls-1" cx="184" cy="74.5" r="2.5"/><circle class="cls-1" cx="195" cy="74.5" r="2.5"/><circle class="cls-1" cx="206" cy="74.5" r="2.5"/><circle class="cls-1" cx="217" cy="74.5" r="2.5"/><circle class="cls-1" cx="228" cy="74.5" r="2.5"/><circle class="cls-1" cx="239" cy="74.5" r="2.5"/><circle class="cls-1" cx="2.5" cy="80.5" r="2.5"/><circle class="cls-1" cx="13.5" cy="80.5" r="2.5"/><circle class="cls-1" cx="24.5" cy="80.5" r="2.5"/><circle class="cls-1" cx="35.5" cy="80.5" r="2.5"/><circle class="cls-1" cx="46.5" cy="80.5" r="2.5"/><circle class="cls-1" cx="57.5" cy="80.5" r="2.5"/><circle class="cls-1" cx="68.5" cy="80.5" r="2.5"/><circle class="cls-1" cx="79.5" cy="80.5" r="2.5"/><circle class="cls-1" cx="90.5" cy="80.5" r="2.5"/><circle class="cls-1" cx="101.5" cy="80.5" r="2.5"/><circle class="cls-1" cx="112.5" cy="80.5" r="2.5"/><circle class="cls-1" cx="123.5" cy="80.5" r="2.5"/><circle class="cls-1" cx="134.5" cy="80.5" r="2.5"/><circle class="cls-1" cx="145.5" cy="80.5" r="2.5"/><circle class="cls-1" cx="156.5" cy="80.5" r="2.5"/><circle class="cls-1" cx="167.5" cy="80.5" r="2.5"/><circle class="cls-1" cx="178.5" cy="80.5" r="2.5"/><circle class="cls-1" cx="189.5" cy="80.5" r="2.5"/><circle class="cls-1" cx="200.5" cy="80.5" r="2.5"/><circle class="cls-1" cx="211.5" cy="80.5" r="2.5"/><circle class="cls-1" cx="222.5" cy="80.5" r="2.5"/><circle class="cls-1" cx="233.5" cy="80.5" r="2.5"/><circle class="cls-1" cx="244.5" cy="80.5" r="2.5"/><circle class="cls-1" cx="8" cy="86.5" r="2.5"/><circle class="cls-1" cx="19" cy="86.5" r="2.5"/><circle class="cls-1" cx="30" cy="86.5" r="2.5"/><circle class="cls-1" cx="41" cy="86.5" r="2.5"/><circle class="cls-1" cx="52" cy="86.5" r="2.5"/><circle class="cls-1" cx="63" cy="86.5" r="2.5"/><circle class="cls-1" cx="74" cy="86.5" r="2.5"/><circle class="cls-1" cx="85" cy="86.5" r="2.5"/><circle class="cls-1" cx="96" cy="86.5" r="2.5"/><circle class="cls-1" cx="107" cy="86.5" r="2.5"/><circle class="cls-1" cx="118" cy="86.5" r="2.5"/><circle class="cls-1" cx="129" cy="86.5" r="2.5"/><circle class="cls-1" cx="140" cy="86.5" r="2.5"/><circle class="cls-1" cx="151" cy="86.5" r="2.5"/><circle class="cls-1" cx="162" cy="86.5" r="2.5"/><circle class="cls-1" cx="173" cy="86.5" r="2.5"/><circle class="cls-1" cx="184" cy="86.5" r="2.5"/><circle class="cls-1" cx="195" cy="86.5" r="2.5"/><circle class="cls-1" cx="206" cy="86.5" r="2.5"/><circle class="cls-1" cx="217" cy="86.5" r="2.5"/><circle class="cls-1" cx="228" cy="86.5" r="2.5"/><circle class="cls-1" cx="239" cy="86.5" r="2.5"/><circle class="cls-1" cx="2.5" cy="92.5" r="2.5"/><circle class="cls-1" cx="13.5" cy="92.5" r="2.5"/><circle class="cls-1" cx="24.5" cy="92.5" r="2.5"/><circle class="cls-1" cx="35.5" cy="92.5" r="2.5"/><circle class="cls-1" cx="46.5" cy="92.5" r="2.5"/><circle class="cls-1" cx="57.5" cy="92.5" r="2.5"/><circle class="cls-1" cx="68.5" cy="92.5" r="2.5"/><circle class="cls-1" cx="79.5" cy="92.5" r="2.5"/><circle class="cls-1" cx="90.5" cy="92.5" r="2.5"/><circle class="cls-1" cx="101.5" cy="92.5" r="2.5"/><circle class="cls-1" cx="112.5" cy="92.5" r="2.5"/><circle class="cls-1" cx="123.5" cy="92.5" r="2.5"/><circle class="cls-1" cx="134.5" cy="92.5" r="2.5"/><circle class="cls-1" cx="145.5" cy="92.5" r="2.5"/><circle class="cls-1" cx="156.5" cy="92.5" r="2.5"/><circle class="cls-1" cx="167.5" cy="92.5" r="2.5"/><circle class="cls-1" cx="178.5" cy="92.5" r="2.5"/><circle class="cls-1" cx="189.5" cy="92.5" r="2.5"/><circle class="cls-1" cx="200.5" cy="92.5" r="2.5"/><circle class="cls-1" cx="211.5" cy="92.5" r="2.5"/><circle class="cls-1" cx="222.5" cy="92.5" r="2.5"/><circle class="cls-1" cx="233.5" cy="92.5" r="2.5"/><circle class="cls-1" cx="244.5" cy="92.5" r="2.5"/><circle class="cls-1" cx="8" cy="98.5" r="2.5"/><circle class="cls-1" cx="19" cy="98.5" r="2.5"/><circle class="cls-1" cx="30" cy="98.5" r="2.5"/><circle class="cls-1" cx="41" cy="98.5" r="2.5"/><circle class="cls-1" cx="52" cy="98.5" r="2.5"/><circle class="cls-1" cx="63" cy="98.5" r="2.5"/><circle class="cls-1" cx="74" cy="98.5" r="2.5"/><circle class="cls-1" cx="85" cy="98.5" r="2.5"/><circle class="cls-1" cx="96" cy="98.5" r="2.5"/><circle class="cls-1" cx="107" cy="98.5" r="2.5"/><circle class="cls-1" cx="118" cy="98.5" r="2.5"/><circle class="cls-1" cx="129" cy="98.5" r="2.5"/><circle class="cls-1" cx="140" cy="98.5" r="2.5"/><circle class="cls-1" cx="151" cy="98.5" r="2.5"/><circle class="cls-1" cx="162" cy="98.5" r="2.5"/><circle class="cls-1" cx="173" cy="98.5" r="2.5"/><circle class="cls-1" cx="184" cy="98.5" r="2.5"/><circle class="cls-1" cx="195" cy="98.5" r="2.5"/><circle class="cls-1" cx="206" cy="98.5" r="2.5"/><circle class="cls-1" cx="217" cy="98.5" r="2.5"/><circle class="cls-1" cx="228" cy="98.5" r="2.5"/><circle class="cls-1" cx="239" cy="98.5" r="2.5"/><circle class="cls-1" cx="2.5" cy="104.5" r="2.5"/><circle class="cls-1" cx="13.5" cy="104.5" r="2.5"/><circle class="cls-1" cx="24.5" cy="104.5" r="2.5"/><circle class="cls-1" cx="35.5" cy="104.5" r="2.5"/><circle class="cls-1" cx="46.5" cy="104.5" r="2.5"/><circle class="cls-1" cx="57.5" cy="104.5" r="2.5"/><circle class="cls-1" cx="68.5" cy="104.5" r="2.5"/><circle class="cls-1" cx="79.5" cy="104.5" r="2.5"/><circle class="cls-1" cx="90.5" cy="104.5" r="2.5"/><circle class="cls-1" cx="101.5" cy="104.5" r="2.5"/><circle class="cls-1" cx="112.5" cy="104.5" r="2.5"/><circle class="cls-1" cx="123.5" cy="104.5" r="2.5"/><circle class="cls-1" cx="134.5" cy="104.5" r="2.5"/><circle class="cls-1" cx="145.5" cy="104.5" r="2.5"/><circle class="cls-1" cx="156.5" cy="104.5" r="2.5"/><circle class="cls-1" cx="167.5" cy="104.5" r="2.5"/><circle class="cls-1" cx="178.5" cy="104.5" r="2.5"/><circle class="cls-1" cx="189.5" cy="104.5" r="2.5"/><circle class="cls-1" cx="200.5" cy="104.5" r="2.5"/><circle class="cls-1" cx="211.5" cy="104.5" r="2.5"/><circle class="cls-1" cx="222.5" cy="104.5" r="2.5"/><circle class="cls-1" cx="233.5" cy="104.5" r="2.5"/><circle class="cls-1" cx="244.5" cy="104.5" r="2.5"/><circle class="cls-1" cx="8" cy="110.5" r="2.5"/><circle class="cls-1" cx="19" cy="110.5" r="2.5"/><circle class="cls-1" cx="30" cy="110.5" r="2.5"/><circle class="cls-1" cx="41" cy="110.5" r="2.5"/><circle class="cls-1" cx="52" cy="110.5" r="2.5"/><circle class="cls-1" cx="63" cy="110.5" r="2.5"/><circle class="cls-1" cx="74" cy="110.5" r="2.5"/><circle class="cls-1" cx="85" cy="110.5" r="2.5"/><circle class="cls-1" cx="96" cy="110.5" r="2.5"/><circle class="cls-1" cx="107" cy="110.5" r="2.5"/><circle class="cls-1" cx="118" cy="110.5" r="2.5"/><circle class="cls-1" cx="129" cy="110.5" r="2.5"/><circle class="cls-1" cx="140" cy="110.5" r="2.5"/><circle class="cls-1" cx="151" cy="110.5" r="2.5"/><circle class="cls-1" cx="162" cy="110.5" r="2.5"/><circle class="cls-1" cx="173" cy="110.5" r="2.5"/><circle class="cls-1" cx="184" cy="110.5" r="2.5"/><circle class="cls-1" cx="195" cy="110.5" r="2.5"/><circle class="cls-1" cx="206" cy="110.5" r="2.5"/><circle class="cls-1" cx="217" cy="110.5" r="2.5"/><circle class="cls-1" cx="228" cy="110.5" r="2.5"/><circle class="cls-1" cx="239" cy="110.5" r="2.5"/><circle class="cls-1" cx="2.5" cy="116.5" r="2.5"/><circle class="cls-1" cx="13.5" cy="116.5" r="2.5"/><circle class="cls-1" cx="24.5" cy="116.5" r="2.5"/><circle class="cls-1" cx="35.5" cy="116.5" r="2.5"/><circle class="cls-1" cx="46.5" cy="116.5" r="2.5"/><circle class="cls-1" cx="57.5" cy="116.5" r="2.5"/><circle class="cls-1" cx="68.5" cy="116.5" r="2.5"/><circle class="cls-1" cx="79.5" cy="116.5" r="2.5"/><circle class="cls-1" cx="90.5" cy="116.5" r="2.5"/><circle class="cls-1" cx="101.5" cy="116.5" r="2.5"/><circle class="cls-1" cx="112.5" cy="116.5" r="2.5"/><circle class="cls-1" cx="123.5" cy="116.5" r="2.5"/><circle class="cls-1" cx="134.5" cy="116.5" r="2.5"/><circle class="cls-1" cx="145.5" cy="116.5" r="2.5"/><circle class="cls-1" cx="156.5" cy="116.5" r="2.5"/><circle class="cls-1" cx="167.5" cy="116.5" r="2.5"/><circle class="cls-1" cx="178.5" cy="116.5" r="2.5"/><circle class="cls-1" cx="189.5" cy="116.5" r="2.5"/><circle class="cls-1" cx="200.5" cy="116.5" r="2.5"/><circle class="cls-1" cx="211.5" cy="116.5" r="2.5"/><circle class="cls-1" cx="222.5" cy="116.5" r="2.5"/><circle class="cls-1" cx="233.5" cy="116.5" r="2.5"/><circle class="cls-1" cx="244.5" cy="116.5" r="2.5"/><circle class="cls-1" cx="8" cy="122.5" r="2.5"/><circle class="cls-1" cx="19" cy="122.5" r="2.5"/><circle class="cls-1" cx="30" cy="122.5" r="2.5"/><circle class="cls-1" cx="41" cy="122.5" r="2.5"/><circle class="cls-1" cx="52" cy="122.5" r="2.5"/><circle class="cls-1" cx="63" cy="122.5" r="2.5"/><circle class="cls-1" cx="74" cy="122.5" r="2.5"/><circle class="cls-1" cx="85" cy="122.5" r="2.5"/><circle class="cls-1" cx="96" cy="122.5" r="2.5"/><circle class="cls-1" cx="107" cy="122.5" r="2.5"/><circle class="cls-1" cx="118" cy="122.5" r="2.5"/><circle class="cls-1" cx="129" cy="122.5" r="2.5"/><circle class="cls-1" cx="140" cy="122.5" r="2.5"/><circle class="cls-1" cx="151" cy="122.5" r="2.5"/><circle class="cls-1" cx="162" cy="122.5" r="2.5"/><circle class="cls-1" cx="173" cy="122.5" r="2.5"/><circle class="cls-1" cx="184" cy="122.5" r="2.5"/><circle class="cls-1" cx="195" cy="122.5" r="2.5"/><circle class="cls-1" cx="206" cy="122.5" r="2.5"/><circle class="cls-1" cx="217" cy="122.5" r="2.5"/><circle class="cls-1" cx="228" cy="122.5" r="2.5"/><circle class="cls-1" cx="239" cy="122.5" r="2.5"/><circle class="cls-1" cx="2.5" cy="128.5" r="2.5"/><circle class="cls-1" cx="13.5" cy="128.5" r="2.5"/><circle class="cls-1" cx="24.5" cy="128.5" r="2.5"/><circle class="cls-1" cx="35.5" cy="128.5" r="2.5"/><circle class="cls-1" cx="46.5" cy="128.5" r="2.5"/><circle class="cls-1" cx="57.5" cy="128.5" r="2.5"/><circle class="cls-1" cx="68.5" cy="128.5" r="2.5"/><circle class="cls-1" cx="79.5" cy="128.5" r="2.5"/><circle class="cls-1" cx="90.5" cy="128.5" r="2.5"/><circle class="cls-1" cx="101.5" cy="128.5" r="2.5"/><circle class="cls-1" cx="112.5" cy="128.5" r="2.5"/><circle class="cls-1" cx="123.5" cy="128.5" r="2.5"/><circle class="cls-1" cx="134.5" cy="128.5" r="2.5"/><circle class="cls-1" cx="145.5" cy="128.5" r="2.5"/><circle class="cls-1" cx="156.5" cy="128.5" r="2.5"/><circle class="cls-1" cx="167.5" cy="128.5" r="2.5"/><circle class="cls-1" cx="178.5" cy="128.5" r="2.5"/><circle class="cls-1" cx="189.5" cy="128.5" r="2.5"/><circle class="cls-1" cx="200.5" cy="128.5" r="2.5"/><circle class="cls-1" cx="211.5" cy="128.5" r="2.5"/><circle class="cls-1" cx="222.5" cy="128.5" r="2.5"/><circle class="cls-1" cx="233.5" cy="128.5" r="2.5"/><circle class="cls-1" cx="244.5" cy="128.5" r="2.5"/><circle class="cls-1" cx="8" cy="134.5" r="2.5"/><circle class="cls-1" cx="19" cy="134.5" r="2.5"/><circle class="cls-1" cx="30" cy="134.5" r="2.5"/><circle class="cls-1" cx="41" cy="134.5" r="2.5"/><circle class="cls-1" cx="52" cy="134.5" r="2.5"/><circle class="cls-1" cx="63" cy="134.5" r="2.5"/><circle class="cls-1" cx="74" cy="134.5" r="2.5"/><circle class="cls-1" cx="85" cy="134.5" r="2.5"/><circle class="cls-1" cx="96" cy="134.5" r="2.5"/><circle class="cls-1" cx="107" cy="134.5" r="2.5"/><circle class="cls-1" cx="118" cy="134.5" r="2.5"/><circle class="cls-1" cx="129" cy="134.5" r="2.5"/><circle class="cls-1" cx="140" cy="134.5" r="2.5"/><circle class="cls-1" cx="151" cy="134.5" r="2.5"/><circle class="cls-1" cx="162" cy="134.5" r="2.5"/><circle class="cls-1" cx="173" cy="134.5" r="2.5"/><circle class="cls-1" cx="184" cy="134.5" r="2.5"/><circle class="cls-1" cx="195" cy="134.5" r="2.5"/><circle class="cls-1" cx="206" cy="134.5" r="2.5"/><circle class="cls-1" cx="217" cy="134.5" r="2.5"/><circle class="cls-1" cx="228" cy="134.5" r="2.5"/><circle class="cls-1" cx="239" cy="134.5" r="2.5"/><circle class="cls-1" cx="2.5" cy="140.5" r="2.5"/><circle class="cls-1" cx="13.5" cy="140.5" r="2.5"/><circle class="cls-1" cx="24.5" cy="140.5" r="2.5"/><circle class="cls-1" cx="35.5" cy="140.5" r="2.5"/><circle class="cls-1" cx="46.5" cy="140.5" r="2.5"/><circle class="cls-1" cx="57.5" cy="140.5" r="2.5"/><circle class="cls-1" cx="68.5" cy="140.5" r="2.5"/><circle class="cls-1" cx="79.5" cy="140.5" r="2.5"/><circle class="cls-1" cx="90.5" cy="140.5" r="2.5"/><circle class="cls-1" cx="101.5" cy="140.5" r="2.5"/><circle class="cls-1" cx="112.5" cy="140.5" r="2.5"/><circle class="cls-1" cx="123.5" cy="140.5" r="2.5"/><circle class="cls-1" cx="134.5" cy="140.5" r="2.5"/><circle class="cls-1" cx="145.5" cy="140.5" r="2.5"/><circle class="cls-1" cx="156.5" cy="140.5" r="2.5"/><circle class="cls-1" cx="167.5" cy="140.5" r="2.5"/><circle class="cls-1" cx="178.5" cy="140.5" r="2.5"/><circle class="cls-1" cx="189.5" cy="140.5" r="2.5"/><circle class="cls-1" cx="200.5" cy="140.5" r="2.5"/><circle class="cls-1" cx="211.5" cy="140.5" r="2.5"/><circle class="cls-1" cx="222.5" cy="140.5" r="2.5"/><circle class="cls-1" cx="233.5" cy="140.5" r="2.5"/><circle class="cls-1" cx="244.5" cy="140.5" r="2.5"/><circle class="cls-1" cx="8" cy="146.5" r="2.5"/><circle class="cls-1" cx="19" cy="146.5" r="2.5"/><circle class="cls-1" cx="30" cy="146.5" r="2.5"/><circle class="cls-1" cx="41" cy="146.5" r="2.5"/><circle class="cls-1" cx="52" cy="146.5" r="2.5"/><circle class="cls-1" cx="63" cy="146.5" r="2.5"/><circle class="cls-1" cx="74" cy="146.5" r="2.5"/><circle class="cls-1" cx="85" cy="146.5" r="2.5"/><circle class="cls-1" cx="96" cy="146.5" r="2.5"/><circle class="cls-1" cx="107" cy="146.5" r="2.5"/><circle class="cls-1" cx="118" cy="146.5" r="2.5"/><circle class="cls-1" cx="129" cy="146.5" r="2.5"/><circle class="cls-1" cx="140" cy="146.5" r="2.5"/><circle class="cls-1" cx="151" cy="146.5" r="2.5"/><circle class="cls-1" cx="162" cy="146.5" r="2.5"/><circle class="cls-1" cx="173" cy="146.5" r="2.5"/><circle class="cls-1" cx="184" cy="146.5" r="2.5"/><circle class="cls-1" cx="195" cy="146.5" r="2.5"/><circle class="cls-1" cx="206" cy="146.5" r="2.5"/><circle class="cls-1" cx="217" cy="146.5" r="2.5"/><circle class="cls-1" cx="228" cy="146.5" r="2.5"/><circle class="cls-1" cx="239" cy="146.5" r="2.5"/></g></g></svg>